<mxfile host="app.diagrams.net" modified="2022-09-03T16:52:45.163Z" agent="5.0 (Macintosh; Intel Mac OS X 10_15_7) AppleWebKit/605.1.15 (KHTML, like Gecko) Version/15.6.1 Safari/605.1.15" etag="nHTcnMmbVcpAaEisXpc8" version="20.2.7" type="github">
  <diagram id="e1punC9GSL0mhzM1jvfw" name="Página-1">
    <mxGraphModel dx="1972" dy="986" grid="1" gridSize="10" guides="1" tooltips="1" connect="1" arrows="1" fold="1" page="1" pageScale="1" pageWidth="827" pageHeight="1169" math="0" shadow="0">
      <root>
        <mxCell id="0" />
        <mxCell id="1" parent="0" />
        <mxCell id="JzsjHWGXUUnoyQSSQbKy-3" value="Account Service" style="verticalAlign=top;align=center;spacingTop=8;spacingLeft=2;spacingRight=12;shape=cube;size=10;direction=south;fontStyle=4;html=1;fillColor=#B9E0A5;" vertex="1" parent="1">
          <mxGeometry x="1200" y="280" width="270" height="230" as="geometry" />
        </mxCell>
        <mxCell id="JzsjHWGXUUnoyQSSQbKy-4" value="Process Service" style="verticalAlign=top;align=center;spacingTop=8;spacingLeft=2;spacingRight=12;shape=cube;size=10;direction=south;fontStyle=4;html=1;fillColor=#FFD966;" vertex="1" parent="1">
          <mxGeometry x="80" y="420" width="780" height="530" as="geometry" />
        </mxCell>
        <mxCell id="JzsjHWGXUUnoyQSSQbKy-5" value="&lt;span style=&quot;&quot;&gt;Data Service&lt;/span&gt;" style="verticalAlign=top;align=center;spacingTop=8;spacingLeft=2;spacingRight=12;shape=cube;size=10;direction=south;fontStyle=4;html=1;fillColor=#99FFFF;" vertex="1" parent="1">
          <mxGeometry x="260" y="140" width="260" height="200" as="geometry" />
        </mxCell>
        <mxCell id="JzsjHWGXUUnoyQSSQbKy-8" value="«component»&lt;br&gt;&lt;b&gt;RecopiladorDatos&lt;/b&gt;" style="html=1;dropTarget=0;" vertex="1" parent="1">
          <mxGeometry x="100" y="510" width="190" height="70" as="geometry" />
        </mxCell>
        <mxCell id="JzsjHWGXUUnoyQSSQbKy-9" value="" style="shape=module;jettyWidth=8;jettyHeight=4;" vertex="1" parent="JzsjHWGXUUnoyQSSQbKy-8">
          <mxGeometry x="1" width="20" height="20" relative="1" as="geometry">
            <mxPoint x="-27" y="7" as="offset" />
          </mxGeometry>
        </mxCell>
        <mxCell id="JzsjHWGXUUnoyQSSQbKy-12" value="«component»&lt;br&gt;&lt;b&gt;GestorDispositivos&lt;/b&gt;" style="html=1;dropTarget=0;" vertex="1" parent="1">
          <mxGeometry x="100" y="600" width="190" height="60" as="geometry" />
        </mxCell>
        <mxCell id="JzsjHWGXUUnoyQSSQbKy-13" value="" style="shape=module;jettyWidth=8;jettyHeight=4;" vertex="1" parent="JzsjHWGXUUnoyQSSQbKy-12">
          <mxGeometry x="1" width="20" height="20" relative="1" as="geometry">
            <mxPoint x="-27" y="7" as="offset" />
          </mxGeometry>
        </mxCell>
        <mxCell id="JzsjHWGXUUnoyQSSQbKy-14" value="«thread»&lt;br&gt;&lt;b&gt;Notificacion(1..10)&lt;/b&gt;" style="html=1;dropTarget=0;" vertex="1" parent="1">
          <mxGeometry x="100" y="690" width="190" height="60" as="geometry" />
        </mxCell>
        <mxCell id="JzsjHWGXUUnoyQSSQbKy-15" value="" style="shape=module;jettyWidth=8;jettyHeight=4;" vertex="1" parent="JzsjHWGXUUnoyQSSQbKy-14">
          <mxGeometry x="1" width="20" height="20" relative="1" as="geometry">
            <mxPoint x="-27" y="7" as="offset" />
          </mxGeometry>
        </mxCell>
        <mxCell id="JzsjHWGXUUnoyQSSQbKy-35" value="Block" style="verticalAlign=top;align=left;spacingTop=8;spacingLeft=2;spacingRight=12;shape=cube;size=10;direction=south;fontStyle=4;html=1;fillColor=#B9E0A5;" vertex="1" parent="1">
          <mxGeometry x="510" y="505" width="180" height="120" as="geometry" />
        </mxCell>
        <mxCell id="JzsjHWGXUUnoyQSSQbKy-36" value="" style="verticalAlign=top;align=left;spacingTop=8;spacingLeft=2;spacingRight=12;shape=cube;size=10;direction=south;fontStyle=4;html=1;fillColor=#B9E0A5;" vertex="1" parent="1">
          <mxGeometry x="470" y="480" width="180" height="130" as="geometry" />
        </mxCell>
        <mxCell id="JzsjHWGXUUnoyQSSQbKy-37" value="Node" style="verticalAlign=top;align=center;spacingTop=8;spacingLeft=2;spacingRight=12;shape=cube;size=10;direction=south;fontStyle=4;html=1;fillColor=#B9E0A5;" vertex="1" parent="1">
          <mxGeometry x="420" y="465" width="200" height="135" as="geometry" />
        </mxCell>
        <mxCell id="JzsjHWGXUUnoyQSSQbKy-10" value="«thread»&lt;br&gt;&lt;b&gt;&lt;font style=&quot;font-size: 10px;&quot;&gt;GestorSeñalesMonitoreo(1..20)&lt;/font&gt;&lt;br&gt;&lt;/b&gt;" style="html=1;dropTarget=0;" vertex="1" parent="1">
          <mxGeometry x="430" y="510" width="170" height="60" as="geometry" />
        </mxCell>
        <mxCell id="JzsjHWGXUUnoyQSSQbKy-11" value="" style="shape=module;jettyWidth=8;jettyHeight=4;" vertex="1" parent="JzsjHWGXUUnoyQSSQbKy-10">
          <mxGeometry x="1" width="20" height="20" relative="1" as="geometry">
            <mxPoint x="-27" y="7" as="offset" />
          </mxGeometry>
        </mxCell>
        <mxCell id="JzsjHWGXUUnoyQSSQbKy-40" value="" style="verticalAlign=top;align=left;spacingTop=8;spacingLeft=2;spacingRight=12;shape=cube;size=10;direction=south;fontStyle=4;html=1;fillColor=#B9E0A5;" vertex="1" parent="1">
          <mxGeometry x="470" y="730" width="210" height="130" as="geometry" />
        </mxCell>
        <mxCell id="JzsjHWGXUUnoyQSSQbKy-39" value="" style="verticalAlign=top;align=left;spacingTop=8;spacingLeft=2;spacingRight=12;shape=cube;size=10;direction=south;fontStyle=4;html=1;fillColor=#B9E0A5;" vertex="1" parent="1">
          <mxGeometry x="430" y="700" width="210" height="130" as="geometry" />
        </mxCell>
        <mxCell id="JzsjHWGXUUnoyQSSQbKy-38" value="Node" style="verticalAlign=top;align=center;spacingTop=8;spacingLeft=2;spacingRight=12;shape=cube;size=10;direction=south;fontStyle=4;html=1;fillColor=#B9E0A5;" vertex="1" parent="1">
          <mxGeometry x="390" y="675" width="210" height="130" as="geometry" />
        </mxCell>
        <mxCell id="JzsjHWGXUUnoyQSSQbKy-41" value="«thread»&lt;br&gt;&lt;b&gt;GestorUbicacion(1..20)&lt;br&gt;&lt;/b&gt;" style="html=1;dropTarget=0;" vertex="1" parent="1">
          <mxGeometry x="414" y="720" width="160" height="60" as="geometry" />
        </mxCell>
        <mxCell id="JzsjHWGXUUnoyQSSQbKy-42" value="" style="shape=module;jettyWidth=8;jettyHeight=4;" vertex="1" parent="JzsjHWGXUUnoyQSSQbKy-41">
          <mxGeometry x="1" width="20" height="20" relative="1" as="geometry">
            <mxPoint x="-27" y="7" as="offset" />
          </mxGeometry>
        </mxCell>
      </root>
    </mxGraphModel>
  </diagram>
</mxfile>
